<svg xmlns="http://www.w3.org/2000/svg" viewBox="0 0 1049.04 100.7"><defs><style>.cls-1{fill:#0056d2;}</style></defs><g id="Layer_2" data-name="Layer 2"><g id="Layer_1-2" data-name="Layer 1"><path class="cls-1" d="M69.88,63.92c0-20,16.47-36.19,37.07-36.19s37.22,16.19,37.22,36.19S127.69,100.26,107,100.26,69.88,83.74,69.88,63.92Zm56.49,0c0-10-8.68-18.83-19.42-18.83S87.68,53.92,87.68,63.92a19.39,19.39,0,0,0,19.27,19C117.69,82.9,126.37,74.07,126.37,63.92Z"/><path class="cls-1" d="M437.32,64.51c0-21.92,17.8-36.78,34-36.78,11,0,17.36,3.39,21.63,9.86l1.69-8.53h16.55V98.94H494.6l-2.11-7.2c-4.86,5.29-10.89,8.53-21.19,8.53C455.41,100.26,437.32,86.28,437.32,64.51Zm56.49-.15a19.35,19.35,0,0,0-38.69.15c0,9.71,8.68,18.39,19.27,18.39,10.74,0,19.42-8.68,19.42-18.54Z"/><path class="cls-1" d="M419.45,37.15V29.06h-18.1V98.93h18.1V61.27c0-11.32,5.59-17.21,15.3-17.21.62,0,1.24,0,1.85.11L440,27.3C430.52,27.35,423.68,30.58,419.45,37.15Z"/><path class="cls-1" d="M241.6,37.15V29.06H223.51l.15,69.88h18.1l-.16-37.66c0-11.33,5.56-17.23,15.26-17.25.62,0,1.24,0,1.86.1L262,27.25C252.6,27.33,245.79,30.58,241.6,37.15Z"/><path class="cls-1" d="M150,71.87V29.06H168v40.6c0,9,5,14.27,13.68,14.27,9.71,0,15.3-5.88,15.3-17.21V29.06h18.1V98.94H197v-8.1c-4.26,6.62-11.18,9.86-20.74,9.86C160.1,100.74,150,88.93,150,71.87Z"/><path class="cls-1" d="M0,63.92C0,43.77,16.48,27.59,37.07,27.59A37.36,37.36,0,0,1,68.41,44.21L53,53.21a19,19,0,1,0,.44,20.72l15.3,9.12a37.3,37.3,0,0,1-31.63,17.21C16.48,100.26,0,83.74,0,63.92Z"/><path class="cls-1" d="M325.14,64c0-19.56,14-36.31,36.26-36.27,20.6,0,35.13,16.55,35.09,36a34.53,34.53,0,0,1-.45,5.74l-53.25-.1c2,8.39,8.94,14.44,19.39,14.46,6.33,0,13.1-2.33,17.23-7.62l12.34,9.88c-6.35,9-17.54,14.23-29.45,14.21C341.26,100.22,325.11,84.45,325.14,64Zm53.13-7.26c-1-7.07-8.37-12.52-17-12.54a18.47,18.47,0,0,0-17.82,12.47Z"/><path class="cls-1" d="M261.19,83.74l16.1-8.42c2.66,5.76,8,9.16,15.5,9.16,6.94,0,9.6-2.21,9.6-5.32,0-11.22-38.1-4.43-38.1-30.12,0-14.17,12.41-21.7,27.76-21.7,11.67,0,22,5.16,27.62,14.76l-15.95,8.42c-2.36-4.73-6.79-7.38-12.4-7.38s-8.13,1.91-8.13,5.16c0,10.93,38.1,4,38.1,30.13,0,13.58-11.07,21.85-28.94,21.85C277.14,100.24,266.51,95.22,261.19,83.74Z"/><path class="cls-1" d="M555,34l8.91-.56h20.5v5.13H555Zm8.77-14.77c0-12.67,5.69-19.2,15.8-19.2a23.78,23.78,0,0,1,9.31,2.15l-1.59,4.79a17.35,17.35,0,0,0-7.61-1.81c-6.89,0-10,5.23-10,14.47V97.27h-5.88Z"/><path class="cls-1" d="M591.21,65.46c0-21.36,13.33-33.65,28.67-33.65S648.6,44.1,648.6,65.46c0,21.12-13.33,33.41-28.68,33.41S591.21,86.58,591.21,65.46Zm51.18,0c0-16.81-9.61-28.46-22.51-28.46s-22.5,11.65-22.5,28.46,9.6,28.22,22.5,28.22S642.39,82.27,642.39,65.46Z"/><path class="cls-1" d="M667.74,33.41h5l.64,11.91h.22c4.32-7.84,10.57-13.51,18.17-13.51a13.32,13.32,0,0,1,6.33,1.33l-1.33,5.32A14.25,14.25,0,0,0,691,37.4c-5.75,0-12.56,4.36-17.43,16.43V97.27H667.7Z"/><path class="cls-1" d="M738,79.64V38.54H728V34l10.11-.56.74-18.49h5V33.41h18.51v5.13H743.86V80.07c0,8.16,2,13.66,10.85,13.66a23,23,0,0,0,8-2l1.54,4.76c-3.69,1.31-7.78,2.4-10.42,2.4C741.6,98.87,738,91.07,738,79.64Z"/><path class="cls-1" d="M771.16,65.46c0-20.83,13.53-33.65,27.84-33.65,15.14,0,24.45,10.77,24.45,29.55a27.43,27.43,0,0,1-.33,4.79H777.19c.22,16.12,9.66,27.64,24,27.64a28.81,28.81,0,0,0,17.16-5.67l2.42,4.47c-5,3.14-10.78,6.28-20.14,6.28C784.38,98.87,771.16,86.34,771.16,65.46Zm46.76-4.15c0-16.31-7.4-24.42-18.86-24.42-10.8,0-20.56,9.15-21.89,24.42Z"/><path class="cls-1" d="M834.2,81.38c0-14.19,12.79-20.95,41.2-24.09.18-9.81-2.5-20.32-15.06-20.32-8.62,0-16.06,4.26-20.35,7.5l-2.71-4.36c4.52-3.19,13.38-8.3,23.75-8.3,15.14,0,20.25,11,20.25,24.66v40.8h-5l-.64-8.3h-.29c-6.52,5.27-14.28,9.9-22.66,9.9C842.6,98.87,834.2,93.36,834.2,81.38Zm41.2,2.11V61.74c-26.23,3-35.19,9.13-35.19,19.31,0,9.17,6.19,12.69,13.54,12.69S867.5,90.22,875.4,83.49Z"/><path class="cls-1" d="M904.07,33.41h5l.64,9.9H910c5.8-6.5,13.06-11.5,20.19-11.5,10.24,0,15.36,5.16,17.63,13,7.25-8,14.31-13,21.68-13,12.71,0,19.1,8,19.1,24.5v41h-5.88V57.08c0-13.54-4.52-20-14.31-20-6,0-12.08,4-19.13,12V97.25h-5.87V57.08c0-13.54-4.52-20-14.31-20-5.78,0-12.08,4-19.13,12V97.25h-5.88Z"/><path class="cls-1" d="M1004.12,90l3.4-4.29c5.4,4.53,11.21,8.09,20.3,8.09,10,0,15.26-5.88,15.26-12.61,0-8-8.27-11.52-15.64-14.18-9.63-3.41-20.35-7.34-20.35-18.24,0-9.21,7.29-17,20.59-17a30,30,0,0,1,18.25,6.62l-3.17,4.23c-4.31-3.22-8.84-5.82-15.24-5.82-10,0-14.47,5.73-14.47,11.62,0,7.29,7.53,10.06,15.14,12.93,9.89,3.76,20.85,7,20.85,19.47,0,9.63-7.69,18-21.52,18A36.5,36.5,0,0,1,1004.12,90Z"/></g></g></svg>